<svg xmlns="http://www.w3.org/2000/svg" width="45.135" height="45.135" viewBox="0 0 45.135 45.135"><defs><style>.a{fill:none;}.b{fill:#ffbf00;}</style></defs><path class="a" d="M0,0H45.135V45.135H0Z"/><path class="b" d="M20.788,2A18.806,18.806,0,1,0,39.613,20.806,18.8,18.8,0,0,0,20.788,2Zm.019,33.852A15.045,15.045,0,1,1,35.852,20.806,15.041,15.041,0,0,1,20.806,35.852Zm6.582-16.926A2.821,2.821,0,1,0,24.568,16.1,2.817,2.817,0,0,0,27.389,18.926Zm-13.165,0A2.821,2.821,0,1,0,11.4,16.1,2.817,2.817,0,0,0,14.224,18.926Zm6.582,5.642A10.336,10.336,0,0,0,11.2,31.15h19.22A10.336,10.336,0,0,0,20.806,24.568Z" transform="translate(1.761 1.761)"/></svg>