<svg id="sentiment_very_dissatisfied-24px" xmlns="http://www.w3.org/2000/svg" width="45.135" height="45.135" viewBox="0 0 45.135 45.135">
  <path id="Path_1806" data-name="Path 1806" d="M0,0H45.135V45.135H0Z" fill="none"/>
  <circle id="Ellipse_14" data-name="Ellipse 14" cx="3" cy="3" r="3" transform="translate(26 15)" fill="#ffbf00"/>
  <circle id="Ellipse_15" data-name="Ellipse 15" cx="3" cy="3" r="3" transform="translate(13 15)" fill="#ffbf00"/>
  <path id="Path_1807" data-name="Path 1807" d="M20.788,2A18.806,18.806,0,1,0,39.613,20.806,18.8,18.8,0,0,0,20.788,2Zm.019,33.852A15.045,15.045,0,1,1,35.852,20.806,15.041,15.041,0,0,1,20.806,35.852Zm0-11.284a10.334,10.334,0,0,0-9.629,6.582h3.141a7.477,7.477,0,0,1,12.976,0h3.141a10.334,10.334,0,0,0-9.629-6.582Z" transform="translate(1.761 1.761)" fill="#ffbf00"/>
</svg>
