<svg xmlns="http://www.w3.org/2000/svg" width="45.135" height="45.135" viewBox="0 0 45.135 45.135">
  <g id="Group_1844" data-name="Group 1844" transform="translate(-1418 1837)">
    <g id="sentiment_very_satisfied-24px" transform="translate(1418 -1837)">
      <path id="Path_1804" data-name="Path 1804" d="M0,0H45.135V45.135H0Z" fill="none"/>
      <circle id="Ellipse_12" data-name="Ellipse 12" cx="3" cy="3" r="3" transform="translate(26 15)" fill="#ffbf00"/>
      <circle id="Ellipse_13" data-name="Ellipse 13" cx="3" cy="3" r="3" transform="translate(13 15)" fill="#ffbf00"/>
      <path id="Path_1805" data-name="Path 1805" d="M20.788,2A18.806,18.806,0,1,0,39.613,20.806,18.8,18.8,0,0,0,20.788,2Z" transform="translate(1.761 1.761)" fill="#ffbf00"/>
    </g>
    <g id="sentiment_very_satisfied-24px-2" data-name="sentiment_very_satisfied-24px" transform="translate(1418 -1837)">
      <path id="Path_1804-2" data-name="Path 1804" d="M0,0H45.135V45.135H0Z" fill="none"/>
      <circle id="Ellipse_12-2" data-name="Ellipse 12" cx="3" cy="3" r="3" transform="translate(26 15)"/>
      <circle id="Ellipse_13-2" data-name="Ellipse 13" cx="3" cy="3" r="3" transform="translate(13 15)"/>
      <path id="Path_1805-2" data-name="Path 1805" d="M11.4,24.568c1.467,4.4,5.115,7.523,9.4,7.523s7.936-3.122,9.4-7.523Z" transform="translate(1.761 1.761)"/>
    </g>
  </g>
</svg>
