<svg xmlns="http://www.w3.org/2000/svg" width="24" height="24" viewBox="0 0 24 24"><defs><style>.a{fill:none;}</style></defs><path class="a" d="M0,0H24V24H0Z"/><circle cx="2" cy="2" r="2" transform="translate(10 2)"/><path d="M19,11.9a.988.988,0,0,0-.84-.97,5.762,5.762,0,0,1-3.23-1.76L13.64,7.74a1.934,1.934,0,0,0-.61-.45c-.01,0-.01-.01-.02-.01H13a1.957,1.957,0,0,0-1.25-.25A2.048,2.048,0,0,0,10,9.1V15a2.006,2.006,0,0,0,2,2h5v4a1,1,0,0,0,2,0V16.5a2.006,2.006,0,0,0-2-2H14V11.05a8.969,8.969,0,0,0,3.8,1.82A.993.993,0,0,0,19,11.9ZM12.83,18A3,3,0,1,1,9,14.17V12.1A5,5,0,1,0,14.9,18Z"/></svg>