<svg xmlns="http://www.w3.org/2000/svg" width="24" height="24" viewBox="0 0 24 24"><defs><style>.a{fill:none;}</style></defs><path class="a" d="M0,0H24V24H0Z"/><path d="M18.7,12.4a6.06,6.06,0,0,0-.86-.4,6.06,6.06,0,0,0,.86-.4,6.012,6.012,0,0,0,3-5.19,6.007,6.007,0,0,0-6,0,6.332,6.332,0,0,0-.78.54A5.95,5.95,0,0,0,12,.81,5.95,5.95,0,0,0,9.08,6.95,5.457,5.457,0,0,0,8.3,6.4a6.008,6.008,0,0,0-6,0,5.97,5.97,0,0,0,3,5.19,6.06,6.06,0,0,0,.86.4A5.918,5.918,0,0,0,2.3,17.58a6.007,6.007,0,0,0,6,0,6.332,6.332,0,0,0,.78-.54A6.217,6.217,0,0,0,9,18a6,6,0,0,0,3,5.19,5.95,5.95,0,0,0,2.92-6.14,5.4,5.4,0,0,0,.78.54,6.008,6.008,0,0,0,6,0,6.012,6.012,0,0,0-3-5.19ZM12,16a4,4,0,1,1,4-4A4,4,0,0,1,12,16Z"/></svg>