<svg xmlns="http://www.w3.org/2000/svg" width="24" height="24" viewBox="0 0 24 24"><defs><style>.a{fill:none;}</style></defs><path class="a" d="M0,0H24V24H0Z"/><path d="M13.49,5.48a2,2,0,1,0-2-2A2.006,2.006,0,0,0,13.49,5.48Zm-3.17,12,.57-2.5,2.1,2v5a1,1,0,0,0,2,0V16.34a1.989,1.989,0,0,0-.62-1.45l-1.48-1.41.6-3a7.321,7.321,0,0,0,4.36,2.41,1,1,0,0,0,.29-1.98,4.864,4.864,0,0,1-3.45-2.33l-1-1.6a2.062,2.062,0,0,0-1.7-1c-.3,0-.5.1-.8.1L7.21,7.76A2.011,2.011,0,0,0,5.99,9.61v2.37a1,1,0,0,0,2,0V9.58l1.8-.7-1.6,8.1-3.92-.8a1,1,0,0,0-1.18.78V17a1,1,0,0,0,.78,1.18L7.98,19A2,2,0,0,0,10.32,17.48Z"/></svg>