<svg xmlns="http://www.w3.org/2000/svg" width="24" height="24" viewBox="0 0 24 24"><defs><style>.a{fill:none;}</style></defs><path class="a" d="M0,0H24V24H0Z"/><path d="M17.73,12.02l3.98-3.98a1,1,0,0,0,0-1.41L17.37,2.29a1,1,0,0,0-1.41,0L11.98,6.27,8,2.29A1.024,1.024,0,0,0,7.29,2a1,1,0,0,0-.7.29L2.25,6.63a1,1,0,0,0,0,1.41l3.98,3.98L2.25,16a1,1,0,0,0,0,1.41l4.34,4.34a1,1,0,0,0,1.41,0l3.98-3.98,3.98,3.98a.982.982,0,0,0,.71.29,1.024,1.024,0,0,0,.71-.29l4.34-4.34a1,1,0,0,0,0-1.41l-3.99-3.98ZM12,9a1,1,0,1,1-1,1A1,1,0,0,1,12,9ZM7.29,10.96,3.66,7.34,7.29,3.71l3.62,3.62ZM10,13a1,1,0,1,1,1-1A1,1,0,0,1,10,13Zm2,2a1,1,0,1,1,1-1A1,1,0,0,1,12,15Zm2-4a1,1,0,1,1-1,1A1,1,0,0,1,14,11Zm2.66,9.34-3.63-3.62,3.63-3.63,3.62,3.62Z"/></svg>