<svg xmlns="http://www.w3.org/2000/svg" width="24" height="24" viewBox="0 0 24 24"><defs><style>.a{fill:none;}</style></defs><path class="a" d="M0,0H24V24H0Z"/><path d="M15.49,9.63a11.875,11.875,0,0,0-2.64-6.76,1.009,1.009,0,0,0-1.57,0A12.1,12.1,0,0,0,8.51,9.63,13.867,13.867,0,0,1,12,12.26,14.358,14.358,0,0,1,15.49,9.63Zm-6.5,2.65c-.14-.1-.3-.19-.45-.29C8.69,12.1,8.85,12.18,8.99,12.28Zm6.42-.25c-.13.09-.27.16-.4.26C15.14,12.19,15.28,12.12,15.41,12.03ZM12,15.45a11.968,11.968,0,0,0-8.83-5.39,1.015,1.015,0,0,0-1.11,1.11A12.177,12.177,0,0,0,10.04,21.5a10.749,10.749,0,0,0,1.97.51,12.94,12.94,0,0,0,1.97-.51,12.165,12.165,0,0,0,7.98-10.33,1.02,1.02,0,0,0-1.11-1.11A11.97,11.97,0,0,0,12,15.45Z"/></svg>