<svg xmlns="http://www.w3.org/2000/svg" width="22" height="22" viewBox="0 0 22 22"><defs><style>.a{fill:none;}</style></defs><path class="a" d="M0,0H22V22H0ZM0,0H22V22H0ZM0,0H22V22H0ZM0,0H22V22H0Z"/><path d="M11,6.1a4.5,4.5,0,0,1,4.545,4.454,4.387,4.387,0,0,1-.218,1.3l2.782,2.726A10.517,10.517,0,0,0,21,10.549,10.755,10.755,0,0,0,11,3.876a10.975,10.975,0,0,0-3.309.508L9.664,6.317A4.76,4.76,0,0,1,11,6.1ZM2.555,3.128a.875.875,0,0,0,0,1.256L4.345,6.139A10.613,10.613,0,0,0,1,10.558a10.749,10.749,0,0,0,10,6.681,11,11,0,0,0,3.918-.731l2.473,2.423a.918.918,0,0,0,1.282,0,.875.875,0,0,0,0-1.256L3.845,3.128A.93.93,0,0,0,2.555,3.128ZM11,15.012a4.5,4.5,0,0,1-4.545-4.454A4.3,4.3,0,0,1,6.9,8.651l1.427,1.4a3,3,0,0,0-.055.508A2.7,2.7,0,0,0,11,13.23a2.5,2.5,0,0,0,.518-.062l1.427,1.4A4.449,4.449,0,0,1,11,15.012Zm2.7-4.748a2.673,2.673,0,0,0-2.4-2.352Z"/></svg>